{
	"asset":{
		"generator":"Khronos glTF Blender I/O v4.5.47",
		"version":"2.0"
	},
	"scene":0,
	"scenes":[
		{
			"name":"Scene",
			"nodes":[
				1
			]
		}
	],
	"nodes":[
		{
			"mesh":0,
			"name":"Mesh"
		},
		{
			"children":[
				0
			],
			"name":"uploads_files_89789_16oz_Glass_Mason_Jar",
			"scale":[
				0.0010000000474974513,
				0.0010000000474974513,
				0.0010000000474974513
			]
		}
	],
	"materials":[
		{
			"doubleSided":true,
			"name":"Material_0"
		}
	],
	"meshes":[
		{
			"name":"Mesh_0",
			"primitives":[
				{
					"attributes":{
						"POSITION":0,
						"NORMAL":1
					},
					"indices":2,
					"material":0
				}
			]
		}
	],
	"accessors":[
		{
			"bufferView":0,
			"componentType":5126,
			"count":5272,
			"max":[
				39.49707794189453,
				140.3350067138672,
				39.4962043762207
			],
			"min":[
				-39.4962043762207,
				-1.7772095898198987e-15,
				-39.49707794189453
			],
			"type":"VEC3"
		},
		{
			"bufferView":1,
			"componentType":5126,
			"count":5272,
			"type":"VEC3"
		},
		{
			"bufferView":2,
			"componentType":5123,
			"count":23424,
			"type":"SCALAR"
		}
	],
	"bufferViews":[
		{
			"buffer":0,
			"byteLength":63264,
			"byteOffset":0,
			"target":34962
		},
		{
			"buffer":0,
			"byteLength":63264,
			"byteOffset":63264,
			"target":34962
		},
		{
			"buffer":0,
			"byteLength":46848,
			"byteOffset":126528,
			"target":34963
		}
	],
	"buffers":[
		{
			"byteLength":173376,
			"uri":"jar2.bin"
		}
	]
}
